<?xml version="1.0" encoding="utf-8"?>
<!-- Generator: Adobe Illustrator 18.0.0, SVG Export Plug-In . SVG Version: 6.00 Build 0)  -->
<!DOCTYPE svg PUBLIC "-//W3C//DTD SVG 1.1//EN" "http://www.w3.org/Graphics/SVG/1.1/DTD/svg11.dtd">
<svg version="1.1" id="Layer_1" xmlns="http://www.w3.org/2000/svg" xmlns:xlink="http://www.w3.org/1999/xlink" x="0px" y="0px"
	 viewBox="0 0 200 74" enable-background="new 0 0 200 74" xml:space="preserve">
<metadata><?xpacket begin="﻿" id="W5M0MpCehiHzreSzNTczkc9d"?>
<x:xmpmeta xmlns:x="adobe:ns:meta/" x:xmptk="Adobe XMP Core 5.6-c011 79.156289, 2014/03/31-23:39:12        ">
   <rdf:RDF xmlns:rdf="http://www.w3.org/1999/02/22-rdf-syntax-ns#">
      <rdf:Description rdf:about=""
            xmlns:xmp="http://ns.adobe.com/xap/1.0/"
            xmlns:xmpGImg="http://ns.adobe.com/xap/1.0/g/img/"
            xmlns:xmpTPg="http://ns.adobe.com/xap/1.0/t/pg/"
            xmlns:stDim="http://ns.adobe.com/xap/1.0/sType/Dimensions#"
            xmlns:xmpG="http://ns.adobe.com/xap/1.0/g/"
            xmlns:dc="http://purl.org/dc/elements/1.1/">
         <xmp:CreatorTool>Adobe Illustrator CC 2014 (Windows)</xmp:CreatorTool>
         <xmp:CreateDate>2018-11-26T20:38:14+06:00</xmp:CreateDate>
         <xmp:Thumbnails>
            <rdf:Alt>
               <rdf:li rdf:parseType="Resource">
                  <xmpGImg:width>256</xmpGImg:width>
                  <xmpGImg:height>52</xmpGImg:height>
                  <xmpGImg:format>JPEG</xmpGImg:format>
                  <xmpGImg:image>/9j/4AAQSkZJRgABAgEASABIAAD/7QAsUGhvdG9zaG9wIDMuMAA4QklNA+0AAAAAABAASAAAAAEA&#xA;AQBIAAAAAQAB/+4ADkFkb2JlAGTAAAAAAf/bAIQABgQEBAUEBgUFBgkGBQYJCwgGBggLDAoKCwoK&#xA;DBAMDAwMDAwQDA4PEA8ODBMTFBQTExwbGxscHx8fHx8fHx8fHwEHBwcNDA0YEBAYGhURFRofHx8f&#xA;Hx8fHx8fHx8fHx8fHx8fHx8fHx8fHx8fHx8fHx8fHx8fHx8fHx8fHx8fHx8f/8AAEQgANAEAAwER&#xA;AAIRAQMRAf/EAaIAAAAHAQEBAQEAAAAAAAAAAAQFAwIGAQAHCAkKCwEAAgIDAQEBAQEAAAAAAAAA&#xA;AQACAwQFBgcICQoLEAACAQMDAgQCBgcDBAIGAnMBAgMRBAAFIRIxQVEGE2EicYEUMpGhBxWxQiPB&#xA;UtHhMxZi8CRygvElQzRTkqKyY3PCNUQnk6OzNhdUZHTD0uIIJoMJChgZhJRFRqS0VtNVKBry4/PE&#xA;1OT0ZXWFlaW1xdXl9WZ2hpamtsbW5vY3R1dnd4eXp7fH1+f3OEhYaHiImKi4yNjo+Ck5SVlpeYmZ&#xA;qbnJ2en5KjpKWmp6ipqqusra6voRAAICAQIDBQUEBQYECAMDbQEAAhEDBCESMUEFURNhIgZxgZEy&#xA;obHwFMHR4SNCFVJicvEzJDRDghaSUyWiY7LCB3PSNeJEgxdUkwgJChgZJjZFGidkdFU38qOzwygp&#xA;0+PzhJSktMTU5PRldYWVpbXF1eX1RlZmdoaWprbG1ub2R1dnd4eXp7fH1+f3OEhYaHiImKi4yNjo&#xA;+DlJWWl5iZmpucnZ6fkqOkpaanqKmqq6ytrq+v/aAAwDAQACEQMRAD8A8zX+r6419cm4vZzcGVzM&#xA;RK+78jy7+OKqH6W1X/lsn/5GP/XFXfpbVf8Alsn/AORj/wBcVd+ltV/5bJ/+Rj/1xV36W1X/AJbJ&#xA;/wDkY/8AXFXfpbVf+Wyf/kY/9cVd+ltV/wCWyf8A5GP/AFxV36W1X/lsn/5GP/XFX6GfkLNPN+T3&#xA;lSSeRpZWsVq7kliAzAbnwG2KvM/+cY/KtodF8va9L5IgguFguXi84/W43mldnkiNbcfvF5IzJU4q&#xA;yT/nIG9u/K1zofnjy41fOMDTabBp4RpTf2UkbzTROifEVtynrg9B9IxVmf5QaRo+m/l9pT6ZefpN&#xA;dSj/AEjeaqSS13dXf7yed67gs5pQ7qBxPTFXiX5VeUpb5fJWp+WfLt5pmqWupTXXmPzW7LBa3Vgs&#xA;s6yW4AlLTtJVFH7v4aeFcVegfnzp8Ooa/wCQrKbQf8TRS31+W0P1IofrHDT5WHxzNHGPTp6m7fs0&#xA;G+Koz/nHNWHka/cFoLWTWL42eivJLLJpUSOsf6PdpgrcomRmI6fFirEfI/lKy1T8w/Meo3Xka31Y&#xA;QearwjzRJdxpJbGF0dALc/G/ptQinjirPfzn8n675i03R5dMsodag0m+F5qHlq6l9CHUIhGyCMuf&#xA;g5IzclD/AA164qjfyl1Ly1qPksx+WtOm0GCzubqzutJnBMllexyH14qMzrRHaqhfhptQdAqwD8rt&#xA;Es/JHm/S/L3mry4IPNt6LxNM86W07TRatQGef6wSwkSXhvxlDDb4SNsVe7Yq8R/OK080+WfNUer+&#xA;UWWKf8wUi8sXxduCw6g1RZXw7l47f1V/2IxVk/nqCT8u/wAi9TtvK/KGTQ9L9CymWgdTtG09dvjH&#xA;JpK/zYqw38wPy98o+R/IFl5v8qAweaNNudOltNZSWVp9Qa4uYopUnJYmdZ0kYlDt8hirMPz6BPlf&#xA;RGA+FfMejlj2A+uKKn78Vd51DN+dv5a8N+Ftr7SU7Kbe2AJ9uWKse/PfTbbUPPXkaC58snzbELTX&#xA;JDoyyxws3BbM8w0rItU8AantirJP+cfPUb8q9KmN39Zhne5ltoeckptIWnfhZGSULIxt6emeQ6ig&#xA;2AxVhv5faHaeRfOmm6X5x8vg+ZdRubxNJ8/wTGVdRkm5ytHdgsskcpi2COGWo+GnXFUx/PHSE1bz&#xA;95Esn8uR+aka21pzpE06WyMVWz/eepJ8PweGKvQ9D0m10jyHHYWukx6HFFZyt+iInEqW7yBpJEEi&#xA;7N8bncdcVS78lP8AyUflD/tlWv8AyaGKvOvMnlvSNa/OXzZ+kfJD+cvQsdH9IpNaRfVea3PKv1qe&#xA;2r6vEfZr9nem1VV/nT8jP+cafK9rJrHmiP8ARsE8jENJe3XKRyeTLFEjs7nfoinFXlTX/wDzhety&#xA;YRpurtGP+PkNdemd/AzB/wDhcVeh+Svyf/5xV87Ru3lkm/liXnNbfXLyKdFrSrQysknGu3KlPfFX&#xA;k/8AzlH+VvkzyBf+XofLFo9rHqEVy90JJpJuRiaMJT1Gan2z0xVg/wCR/lDRvOH5o6L5c1pZH0y+&#xA;+tfWFicxufRtJpkow6fHGMVfQP5i/kp/zjf+XtjaXvmOHVo4L2VoYGglkm+NV5EMQKLt0qd8VTjy&#xA;L/zj5/zjt5t8vQa/olvd3+n3RYI8t1PG6PGxV0ZAUKsD4/MbYqyH/oU/8kv+rRP/ANJlz/zXiqI8&#xA;v/m9+Ufl7X7H8rdFluBdWMy6VbQxxSzRLKDxKNMSxPFqhmPQ17YqgNYsfyx/JOHSdRvNZ1+300TS&#xA;Q6dpCX13c2VSjMym15elxHPlv+1v1xVm/lyHyd5xu9I/MnT/AFbqRrGS20qSbkqwxySH1mWFtklY&#xA;rwZ+vEU6YqmvlPyjo3lXTptN0dZIrCS5muo7Z3LpC07c3jhB+xHyqQvapxVI9V1zyL+UHke2OoTy&#xA;WmiW0pt7RSHnleadpJ+C8RufttvtQYq831L/AJyZ/IjUdY0fV7mfUTeaHJNNYFbZwoe4ga3k5Cvx&#xA;fu5DTFVPRP8AnJH8g9E1LWL/AE+fUopNcuVvb6I27mL6wIxG0iJX4S4UF/E4qz3y7+X/AJS1WWHz&#xA;noWsa3Baa3Omti2t9Rube0lkn4ykyWqlVo9AHVh02OKsS/NT85fyYTXToms6xq9rq+iSujXWivc2&#xA;zRu4AlhaSJkD/ZHIUIBHzxVK/Ln/ADkT/wA49eXtAbQtNbUVsZTK9y0kM0k00lwSZpZZmcyM7k7t&#xA;X5YqnH5N6t+TfmjzObry3favqmsaFbu1hHrVxdTraQTn05TarO7qtQwRj9rjQdMVZ7+Y35teSvy9&#xA;hspPMt1JC+oM4tIIYnlkcRcfUai7ALzXqe+2KvMdc/5yR/ILzFNpJ1O61Bf0PqEWqWTi2lVVuYEd&#xA;UL8ORZaSnamKs/8ALn5w/lF+YCS6HYaxb3sl9G9vLpV2jwSTI6kPGsc6x+pVK1CV2xVU0r8lfJOn&#xA;XthcA6heQaTKs+j6dfX91dWdnJGKRtBbyuyAoPs1rTtiqA/Or8wvyp0LS18uefi9xbazGWFjDHI7&#xA;lI3BEvKMqY+MgHEhgajbpirzXyx+eX/OPPl7VH1eK+1zUtWaAWiahqn1i9mjtwQfSiaVyEUsKniN&#xA;z1xVPf8AoY/8itY816Jqkl1fJqWnie1sZWt3WJRfmNZTIBWv90u/bFXrug+VNC8t2mqRWCtBaale&#xA;XGpXaPIfTSW5AM3p1p6afDyoNga4q8G8u/ml/wA406V5ls7lNa1e7fSi8ejS6nJqF3Z2gk/ds1sk&#xA;pcpVDTky1C4q9p80+RNA85S6Tqsl/fW01hHMdNv9JvJLRzFeCMvSWEgsriJO+KpzpGg2+maJHo4u&#xA;bq+gRXQ3F9PJc3LiRmY85pCXanKgqdhQYqxry1+X3lvyDbvqEOs6quladaOhttQ1Geext7eMBiyw&#xA;OfTTgqbEDYYqwbRf+chPyI/xvfXdlqN1+ktfNnZz3clvMLZvq3NIKclDIKztUlfnir5/87XOofmr&#xA;/wA5ESaFqF80Ng2qvpNmSRSC0t5GQ+krUAeQIW92OKvqOz/5xq/JW20xbA+W4rhQoD3E0s7Tue7G&#xA;UOrAn/JoPADFUt8h/wDONvlvyN+YK+a9A1K4WzFvNB+ibhRLQzUFVnBVuK0+yyk/5WKvKv8AnOP/&#xA;AI6vlH/jBe/8ThxV5p/zi5/5Pbyz/wBH3/dPuMVfZf5wfl9B598gan5fIX66yfWNLlbbhdwgmI1P&#xA;QNujH+Vjir5y/wCcP/P82h+atQ8gasTBHqjvLZxyfCY7+3XjLEQaUMkad+6Ad8VfRf5yef4vIn5e&#xA;6prwdRfBPq+lo2/O7mBWLY9eG8jD+VTir5+/5w6/LyXUtb1H8w9VVpVtGe10ySSpL3UwrcT1O5KI&#xA;/Gvcue4xVkf/ADm9/wAot5a/5jpv+TOKvSv+cbv/ACSXlb/jBN/1Ey4q9KxV4B/zmr/5KzSv+25b&#xA;/wDUHd4qlX5CfkJ+U/mr8p9C17XtC+uatefWvrNz9avIuXpXk0SfBFMiCiIo2XFWf/8AQrn5E/8A&#xA;Us/9P2of9lGKvStH0jTtG0q00nTYRbafYwpb2kCksEijUKq1YljQDqTXFXxGPLei+Zf+crtQ0PW7&#xA;f63pd7rd+l1b85I+YVZXA5xMjj4lB2OKvpL/AKFc/In/AKln/p+1D/soxVkvkj8ovy78jXdzeeVt&#xA;IXT7q7jENxN69xOzRq3LiPXkl4iu540r36Yq+e/+c4/+Or5R/wCMF7/xOHFXonkH/nHn8nNa/Lzy&#xA;vqOpeXEmvb3SrG6up1uLuJnmmtkeRj6UyfaZiadMVeK/85JfkVpH5dfozzF5Xmni0q8nNvJbSuXa&#xA;3uVUyRmKX7XFlRvtbgjqa7Kvpr8hfOOo+bvyq0PWdTYyaiUktruZusj20rQ+ofd1QM3vXFXzr/zm&#xA;1/yn+hf9sof9RMuKvZfL3/OM35I3egaZd3HlvncXFpBLM/12/HJ3jVmNBcACpPbFU2s/+cZvyQtL&#xA;uG7g8tKJ7d1liLXl86hkPJao87K246EUxVnXmz/lFdZ/5gbn/ky2Kvzf8veVLrW9G8w31rUyaDaJ&#xA;fyRj9qH10hk/4ES8/kDir7L/AOcTfPP+Ivywi0meTlqHluT6lICasbZqvbN8gtYx/qYq9qxV4F/z&#xA;mH58Oi+Q7fyzaycb7zFLScDqLO3IeT3HOQovuOWKvlTXvKN15W17QbK8qLy7tbLUJ4yKFDdt6iJT&#xA;sVjKhveuKvVv+cjPyj82eUPPV1+YPl1Jn0m8uv0mb22DGSxvC/qO0lN1Uy/Gj9N+J7VVZp+W/wDz&#xA;mbpk0MNh59sntblQFOsWK+pC/wDlS24+NPf0+VT+yMVfRnl/zJoHmLTI9U0K/g1Gwl+zcW7h1r3V&#xA;qbqw7qdxir5d/wCc4/8Ajq+Uf+MF7/xOHFXmn/OLn/k9vLP/AEff90+4xV9/4q+Mv+cofJeo+Rvz&#xA;LsPzA0EG3t9UnW7WZB8MOpwEO9f+MtBJv9o88VS/89fzMn/N7zJ5T8u+WEaSJ4YG+qgmn6SvgvqI&#xA;x6EW60XlTb4+2Kvr/wAieUNP8n+UdL8t6eK2+nQLG0lKGSU/FLKR4ySMzH54q8J/5ze/5Rby1/zH&#xA;Tf8AJnFXpX/ON3/kkvK3/GCb/qJlxV6VirwD/nNX/wAlZpX/AG3Lf/qDu8VYl+Sn/OS/5deS/wAs&#xA;tG8taxFqDajYfWfXNvAjx/vruWZeLGRCfgkFduuKvRNG/wCctfyr1fWLHSrePUkuNQuIrWF5LdAg&#xA;eZwilisrGlW3oMVe0Yq+GofMGj+Xv+csb/WdZuVs9Ms9bv2ublgzBAySoCQgZvtMBsMVfTf/AEMj&#xA;+SX/AFNMH/Im5/6pYqyfyb+Yvkrzol2/ljVY9TWxKLd+msiGMy8ilRIqH4uDU+WKvm7/AJzj/wCO&#xA;r5R/4wXv/E4cVZ9+X/8Azkj+TOj/AJfeW9Lv/MBj1HTtJsra7thZ3rFZoLZEkQMsBQ0ZSKhqe+Kv&#xA;Hvzv/Nm6/OfXNJ8o+SNLubmzt52kg5pSa4nYcPU4gkRxIpO7HoatTFX1R+UnkY+Rvy90fy28glur&#xA;SJnvJBupuJ3MsoX/ACVdyq+wxV8yf85tf8p/oX/bKH/UTLir0fQv+cvPypsdE0+ymh1QzWttDDLx&#xA;toyvKOMK1D6w2qMVZj5A/wCcjvy888+ZIvL2jLfR6hPHJJF9ZhSNCIl5sOSyPvxBPTFWe+bP+UV1&#xA;n/mBuf8Aky2KvkL/AJw30+z1Lzd5n069jE1ne6JLb3MR6PFLNGjqfmrEYqpfkVqN3+WH5/3fk/U5&#xA;CtrfTSaNMzfCrScuVlNT/iw8Qvs+KvtfFXxfrTH86P8AnJyOxT9/5d02YQHun1DTyWmPyuJeQU/5&#xA;YxVAf85TAD8+YwNgILCgxV9vkBgQRUHYg9CMVeQfmN/zjB+W3m6Ke5sbQeX9acEpeWChIWft61sK&#xA;RsK7kqFY/wA2KvmXyLrnm38lvzjOi3k3GGO7istctUYmCe2lKlZVBpuI5BJG1Ae3QkYq9F/5zj/4&#xA;6vlH/jBe/wDE4cVeaf8AOLn/AJPbyz/0ff8AdPuMVff+KsA/Pvy3puv/AJR+ZoL5K/ULGfUrVx9p&#xA;J7KJp0I+fAof8knFXzp/zhZ5b02/866xrdynO60a1jWxB6I92XR5P9YIhUezHFX2Vir5r/5ze/5R&#xA;by1/zHTf8mcVelf843f+SS8rf8YJv+omXFXpWKvAP+c1f/JWaV/23Lf/AKg7vFV3/OOv5X/l1rf5&#xA;OeX9U1jy5p9/qNx9c9e7uLdJJH4X06LyYipoigD2xV6dZflB+V1jeQXtn5V0yC7tpFmt50towySI&#xA;QyOppsVIqDirL8VfCdx5W0nzX/zlPqfl/V1dtOv9avkuFiYo5CrK4ow6fEoxV9Bf9Chfk3/yzX3/&#xA;AElt/TFWb/lx+Unkz8u4r9PLUE0R1Jomu3nlaVm9AMIwK7AL6jffir5+/wCc4/8Ajq+Uf+MF7/xO&#xA;HFWYeS/+cXvyl1/8udA1G5srmHU9U0mzuri8hupQwnnt0kd1Ry8f2mO3GmKvHNP1DzT/AM48fm/J&#xA;p007XWhztGbpQtEvNPkYhJlU14yx/F0OzArUqd1X3HbXMF1bxXNvIstvOiyQyqaqyOOSsD4EHFXx&#xA;z/zm1/yn+hf9sof9RMuKvoPy1+TX5Uz+XNKnm8p6XJNLZ27yyNaxlmZolLEmnUnFWR6D+W3kDy/f&#xA;jUdE8v2GnXwVoxc20CRyBW+0Ayiu+Ko/zZ/yius/8wNz/wAmWxV8lf8AOEv/ACn+u/8AbKP/AFEx&#xA;Yqjv+cy/J0+l+adG89aeGi+vqLW6nj+Epd2vxQSFh+08Ww/4x4q9T83fnbCn/OOsfne1lWPVtYtF&#xA;srVU6pqMoMM3H/jCySOK/wAuKsW/5wv8ifUfLmp+crqKlxq0n1PT2Yb/AFW3NZWU+Ek3wn/jHirz&#xA;L/nKb/yfKf8AGCwxV6b5J/5zM0OeV7LzzpMujXSOVN1aK00IINCJYm/fRlem3L6MVZtq/wDzlV+S&#xA;thp7XVvrMmpTcS0Vla2twJXPh++SFF/2bDFXzV5T03X/AM7Pz1fXDZmKxlvYr3VHALxW9nb8VjiZ&#xA;zsXeOJYx4nelAaKs9/5zj/46vlH/AIwXv/E4cVeaf84uf+T28s/9H3/dPuMVff8AirFfzY/8lZ5y&#xA;/wC2HqX/AFByYq+df+cHP+Or5u/4wWX/ABObFX1pir5r/wCc3v8AlFvLX/MdN/yZxVX/ACS/5yA/&#xA;KPy1+VugaHrevfVNUsopEurf6peycC08jgc4oXQ/CwOxxVnlv/zk5+R1xcRW8XmUGWZ1jjBs79QW&#xA;Y0FWaAKNz1JxViP/ADmr/wCSs0r/ALblv/1B3eKoH/nH/wDO38rfLX5R6Domua/FZapafW/rFq8c&#xA;7FPUvZpUqUjZd0cHY4q9D/6GR/JL/qaYP+RNz/1SxVn2jazpmtaVa6tpVwt3p17GJrW4SvF0bodw&#xA;CPkcVfG/ln/1smb/ALbmof8AJqbFX2pirsVfJf8AznH/AMdXyj/xgvf+Jw4q+ivyn/8AJWeTf+2H&#xA;pv8A1Bx4q8j/AOcy/Iw1TyVY+a7aOt1oM3pXTAbm0uiFqT34TBKf6zYqnv8Azid57PmT8sYtKuZO&#xA;eoeW3Fi4PU2xHK1b5BKxj/UxV49/zm1/yn+hf9sof9RMuKvb/Ln/ADkR+TNr5e0u2uPM8Ec8FpBF&#xA;KhhuSVdIlVhtF2IxVM4/+cjfyUkkWNPNMBZyFUGK5AqTQbmKmKsz82f8orrP/MDc/wDJlsVfJX/O&#xA;Ev8Ayn+u/wDbKP8A1ExYq+jfzz8j/wCM/wAsdZ0iKP1L+KL65pop8X1m2+NFX3kHKP8A2WKvgjSr&#xA;zzNr9rpHka0laa1l1EyafZ9vrV56cNSfD4BTwqx7nFX6P+U/Llj5a8taZoFiKWumW0dtGaULcFAZ&#xA;zT9p2qx9zir41/5ym/8AJ8p/xgsMVe4/nH/0LB+kJP8AHX1H9OV/ffUvW+vcqbev9R+OtOnrYq8m&#xA;0f8A6Et+vJ9Y/Snp/wDL59c9GtR1+r/H/DFX1B+Xf/KvP8ORf4C+ofoOu36O4cfUoK+rx+L1KU5c&#xA;/i8cVecf85Hf8qS+saF/ysf679Z4XH6N+o+pXhWP1efH4evGnfFWI/kr/wBCzf8AKx9M/wAG/pP/&#xA;ABNxuP0b9c9b0q/V5PV/ya+hzpy2+mmKvpzFUn85/oT/AAfrv6e5foP9H3f6V4cuf1T0H9fjw+Kv&#xA;p8qU3xV5N/zjb/ypX6xr/wDyrr9IfWaQfpH9I8q+nyk9L0/2aV5e/TFXuOKvLf8AnIT/AJVP/hSy&#xA;/wCVj+t9R+uD9H/VPU+sevwblx9P9nhXly26d6Yq+ff+sNv+15/yVxVFaT/0J3+lbP0f0z6vrxen&#xA;63q+ny5inOm/GvXFX0H+ff8AyrH/AAMv/KxfV/Qv1yL6r9X9T1vrfCTh6fp9/T9TrtSuKvnL/rDb&#xA;/tef8lcVd/1ht/2vP+SuKvq/8tf8Mf4C0P8Awt6n+H/qifo71uXqel/l8t+Va1xV4/o//Kgf+hhJ&#xA;fqf6S/x79eua8uf1L65wk9enfpy6/D4Yq+hcVdirw7/nJP8A5Ur6+g/8rF/SH1mk36O/R3Kvp84v&#xA;V5/s06e9K07Yq9Z8mfoT/B+hfoHl+g/0faforny5/VPQT0OXP4q+nxrXfFVPzz/hz/B2tf4mp/h/&#xA;6nN+k61r6HA8+PH4uVPs8d69N8VeSf8AON3/ACpP9J65/wAq7/Sf1r04vr/6Q5cfS5t6fCnw9a9f&#xA;i/HFVT/nIv8A5UR+kdH/AOVi/Wv0p6Mn1L6h6nq+hyFfU4/Dx514171p3xV49/1ht/2vP+SuKqtp&#xA;/wBCa/Woa/pmnqLX1vW9PqPt034+NMVfYurfUf0Ve/X/APeH0JfrfX+64H1Ps7/Zr0xV4V/zjl/y&#xA;oj/Eerf8q8/SP6V+q/6T+kOXH6t6q/3f7P2+PX4sVe/4q+bPy/8A+haP+V0n/Dv1z/FH1m5+pery&#xA;/R/1ikvq+hX25cOW3Tjvir6TxV86/nR/0L1/ytK1/wAafpL/ABJ6dtz+qep9X4cj6PqU3+fD9eKv&#xA;/9k=</xmpGImg:image>
               </rdf:li>
            </rdf:Alt>
         </xmp:Thumbnails>
         <xmpTPg:MaxPageSize rdf:parseType="Resource">
            <stDim:w>200.000000</stDim:w>
            <stDim:h>74.000000</stDim:h>
            <stDim:unit>Pixels</stDim:unit>
         </xmpTPg:MaxPageSize>
         <xmpTPg:NPages>1</xmpTPg:NPages>
         <xmpTPg:HasVisibleTransparency>False</xmpTPg:HasVisibleTransparency>
         <xmpTPg:HasVisibleOverprint>False</xmpTPg:HasVisibleOverprint>
         <xmpTPg:PlateNames>
            <rdf:Seq>
               <rdf:li>Cyan</rdf:li>
               <rdf:li>Magenta</rdf:li>
               <rdf:li>Yellow</rdf:li>
               <rdf:li>Black</rdf:li>
            </rdf:Seq>
         </xmpTPg:PlateNames>
         <xmpTPg:SwatchGroups>
            <rdf:Seq>
               <rdf:li rdf:parseType="Resource">
                  <xmpG:groupName>Default Swatch Group</xmpG:groupName>
                  <xmpG:groupType>0</xmpG:groupType>
               </rdf:li>
            </rdf:Seq>
         </xmpTPg:SwatchGroups>
         <dc:format>image/svg+xml</dc:format>
      </rdf:Description>
   </rdf:RDF>
</x:xmpmeta>
                                                                                                    
                                                                                                    
                                                                                                    
                                                                                                    
                                                                                                    
                                                                                                    
                                                                                                    
                                                                                                    
                                                                                                    
                                                                                                    
                                                                                                    
                                                                                                    
                                                                                                    
                                                                                                    
                                                                                                    
                                                                                                    
                                                                                                    
                                                                                                    
                                                                                                    
                                                                                                    
                           
<?xpacket end="w"?>
	</metadata>
<path d="M51.9,21.2c0,0.3,0,4.2,0,4.4c0,0.2-0.1,0.4-0.1,0.6c-0.1,0.2-0.1,0.3-0.2,0.3c-0.1,0.1-0.2,0.1-0.3,0.1l-20.4,0.1l0.1,29.7
	c0,0.1,0,0.3-0.1,0.4c-0.1,0.1-0.2,0.2-0.3,0.3c-0.1,0.1-0.3,0.1-0.6,0.2c-0.2,0-0.5,0.1-0.9,0.1c-0.3,0-4.7,0-5,0
	c-0.2,0-0.4-0.1-0.6-0.2c-0.1-0.1-0.2-0.1-0.3-0.3c-0.1-0.1-0.1-0.2-0.1-0.4V26.7H2.8c-0.1,0-0.2,0-0.3-0.1
	c-0.1-0.1-0.2-0.2-0.2-0.3c-0.1-0.2-0.1-0.4-0.1-0.6c0-0.2-0.1-4.1-0.1-4.4c0-0.3,0-0.6,0.1-0.9c0-0.3,0.1-0.5,0.1-0.6
	c0.1-0.2,0.1-0.3,0.2-0.3c0.1-0.1,0.2-0.1,0.3-0.1h48.4c0.1,0,0.2,0,0.3,0.1c0.1,0.1,0.2,0.2,0.2,0.3c0.1,0.2,0.1,0.4,0.1,0.6
	C51.9,20.6,51.9,20.9,51.9,21.2z"/>
<path d="M115.3,31c0,0.3,0,0.5,0,0.7c0,0.2-0.1,0.4-0.2,0.5c-0.1,0.1-0.2,0.2-0.2,0.3c-0.1,0.1-0.2,0.1-0.3,0.1h-10.2v9.5h9.7
	c0.1,0,0.2,0,0.3,0.1c0.1,0.1,0.2,0.1,0.2,0.2c0.1,0.1,0.1,0.3,0.2,0.5c0,0.2,0,0.4,0,0.7c0,0.3,0,0.5,0,0.7c0,0.2-0.1,0.4-0.2,0.5
	c-0.1,0.1-0.2,0.2-0.2,0.3c-0.1,0.1-0.2,0.1-0.3,0.1h-9.7v11.6c0,0.1,0,0.2-0.1,0.3c-0.1,0.1-0.2,0.2-0.3,0.2
	c-0.1,0.1-0.3,0.1-0.6,0.1c-0.2,0-0.5,0.1-0.9,0.1c-0.3,0-0.6,0-0.9-0.1c-0.2,0-0.4-0.1-0.6-0.1c-0.1-0.1-0.2-0.1-0.3-0.2
	c-0.1-0.1-0.1-0.2-0.1-0.3V30.9c0-0.6,0.1-1,0.4-1.2c0.3-0.2,0.6-0.3,0.9-0.3h12.6c0.1,0,0.2,0,0.3,0.1c0.1,0.1,0.2,0.2,0.2,0.3
	c0.1,0.1,0.1,0.3,0.2,0.5C115.3,30.5,115.3,30.7,115.3,31z"/>
<path d="M139.6,56.8c0,0.1,0,0.2-0.1,0.3c0,0.1-0.1,0.2-0.3,0.2c-0.1,0.1-0.3,0.1-0.6,0.1c-0.3,0-0.6,0-1,0c-0.4,0-0.7,0-0.9,0
	c-0.2,0-0.4-0.1-0.6-0.1c-0.1-0.1-0.3-0.2-0.3-0.3c-0.1-0.1-0.1-0.3-0.2-0.4L133,50c-0.3-0.7-0.6-1.4-0.9-2.1
	c-0.3-0.6-0.7-1.2-1.2-1.6c-0.4-0.5-1-0.8-1.6-1.1c-0.6-0.3-1.3-0.4-2.2-0.4h-2.5v11.9c0,0.1,0,0.2-0.1,0.3
	c-0.1,0.1-0.2,0.2-0.3,0.2c-0.1,0.1-0.3,0.1-0.6,0.1c-0.2,0-0.5,0.1-0.9,0.1c-0.4,0-0.7,0-0.9-0.1c-0.2,0-0.4-0.1-0.6-0.1
	c-0.1-0.1-0.2-0.1-0.3-0.2c-0.1-0.1-0.1-0.2-0.1-0.3V30.9c0-0.6,0.1-1,0.4-1.2c0.3-0.2,0.6-0.3,0.9-0.3h5.9c0.7,0,1.3,0,1.8,0.1
	c0.5,0,0.9,0.1,1.3,0.1c1.1,0.2,2,0.5,2.9,0.9c0.8,0.4,1.5,0.9,2.1,1.5c0.6,0.6,1,1.3,1.3,2.1c0.3,0.8,0.4,1.7,0.4,2.6
	c0,0.9-0.1,1.8-0.4,2.5c-0.3,0.7-0.6,1.4-1.1,2c-0.5,0.6-1,1.1-1.7,1.5c-0.7,0.4-1.4,0.8-2.2,1.1c0.5,0.2,0.9,0.5,1.3,0.8
	c0.4,0.3,0.7,0.7,1,1.1c0.3,0.4,0.6,0.9,0.9,1.5c0.3,0.6,0.6,1.2,0.9,1.9l2.5,6.2c0.2,0.5,0.3,0.9,0.4,1.1
	C139.6,56.5,139.6,56.7,139.6,56.8z M134,37.2c0-1.1-0.2-2-0.7-2.8c-0.5-0.8-1.3-1.3-2.5-1.6c-0.4-0.1-0.8-0.2-1.2-0.2
	c-0.5,0-1-0.1-1.8-0.1h-3.1v9.4h3.6c1,0,1.8-0.1,2.5-0.4c0.7-0.2,1.3-0.6,1.8-1c0.5-0.4,0.8-0.9,1-1.5C133.9,38.5,134,37.8,134,37.2
	z"/>
<path d="M160.5,55.8c0,0.3,0,0.5,0,0.7c0,0.2-0.1,0.4-0.2,0.5c-0.1,0.1-0.2,0.2-0.2,0.3c-0.1,0.1-0.2,0.1-0.3,0.1h-13.4
	c-0.3,0-0.6-0.1-0.9-0.3c-0.3-0.2-0.4-0.6-0.4-1.2V30.9c0-0.6,0.1-1,0.4-1.2c0.3-0.2,0.6-0.3,0.9-0.3h13.3c0.1,0,0.2,0,0.3,0.1
	c0.1,0.1,0.2,0.2,0.2,0.3c0.1,0.1,0.1,0.3,0.1,0.5c0,0.2,0.1,0.4,0.1,0.7c0,0.3,0,0.5-0.1,0.7c0,0.2-0.1,0.4-0.1,0.5
	c-0.1,0.1-0.1,0.2-0.2,0.3c-0.1,0.1-0.2,0.1-0.3,0.1h-10.9v8.8h9.4c0.1,0,0.2,0,0.3,0.1c0.1,0.1,0.2,0.2,0.2,0.3
	c0.1,0.1,0.1,0.3,0.1,0.5c0,0.2,0,0.4,0,0.7c0,0.3,0,0.5,0,0.7c0,0.2-0.1,0.3-0.1,0.5c-0.1,0.1-0.1,0.2-0.2,0.2
	c-0.1,0.1-0.2,0.1-0.3,0.1h-9.4v10h11.1c0.1,0,0.2,0,0.3,0.1c0.1,0.1,0.2,0.1,0.2,0.3c0.1,0.1,0.1,0.3,0.2,0.5
	C160.5,55.3,160.5,55.5,160.5,55.8z"/>
<path d="M197,56.8c0,0.1,0,0.2-0.1,0.3c-0.1,0.1-0.2,0.2-0.3,0.2c-0.1,0.1-0.3,0.1-0.6,0.1c-0.2,0-0.5,0.1-0.9,0.1
	c-0.3,0-0.6,0-0.9-0.1c-0.2,0-0.4-0.1-0.6-0.1c-0.1-0.1-0.2-0.1-0.3-0.2c-0.1-0.1-0.1-0.2-0.1-0.3V32.5h0l-9.8,24.5
	c0,0.1-0.1,0.2-0.2,0.3c-0.1,0.1-0.2,0.1-0.3,0.2s-0.3,0.1-0.5,0.1c-0.2,0-0.5,0-0.7,0c-0.3,0-0.6,0-0.8,0c-0.2,0-0.4-0.1-0.5-0.1
	c-0.1,0-0.3-0.1-0.3-0.2c-0.1-0.1-0.1-0.2-0.2-0.2l-9.4-24.5h0v24.3c0,0.1,0,0.2-0.1,0.3c-0.1,0.1-0.2,0.2-0.3,0.2
	c-0.1,0.1-0.3,0.1-0.6,0.1c-0.2,0-0.5,0.1-0.9,0.1c-0.4,0-0.7,0-0.9-0.1c-0.2,0-0.4-0.1-0.6-0.1c-0.1-0.1-0.2-0.1-0.3-0.2
	c-0.1-0.1-0.1-0.2-0.1-0.3V31.1c0-0.6,0.2-1,0.5-1.3c0.3-0.3,0.7-0.4,1.1-0.4h2.3c0.5,0,0.9,0,1.2,0.1c0.4,0.1,0.7,0.2,0.9,0.4
	c0.3,0.2,0.5,0.4,0.7,0.7c0.2,0.3,0.3,0.6,0.5,1l8,20.2h0.1l8.3-20.2c0.2-0.4,0.3-0.8,0.5-1.1c0.2-0.3,0.4-0.5,0.6-0.7
	c0.2-0.2,0.5-0.3,0.8-0.4c0.3-0.1,0.6-0.1,1-0.1h2.4c0.2,0,0.4,0,0.6,0.1s0.4,0.2,0.5,0.3s0.3,0.3,0.3,0.5c0.1,0.2,0.1,0.5,0.1,0.8
	V56.8z"/>
<g>
	<path d="M19.9,49.3c0,1.3-0.3,2.4-0.8,3.4c-0.5,1-1.2,1.9-2.1,2.6c-0.9,0.7-1.9,1.2-3.2,1.6c-1.2,0.4-2.5,0.5-3.9,0.5
		c-1,0-1.9-0.1-2.7-0.2C6.4,57,5.7,56.8,5,56.6c-0.7-0.2-1.2-0.5-1.6-0.7c-0.4-0.2-0.8-0.4-0.9-0.6c-0.2-0.2-0.3-0.4-0.4-0.6
		c-0.1-0.3-0.1-0.6-0.1-1c0-0.3,0-0.6,0-0.8c0-0.2,0.1-0.4,0.1-0.5c0.1-0.1,0.1-0.2,0.2-0.3C2.4,52,2.5,52,2.6,52
		c0.2,0,0.5,0.1,0.9,0.4c0.4,0.2,0.9,0.5,1.5,0.8c0.6,0.3,1.3,0.5,2.2,0.8c0.9,0.2,1.8,0.4,2.9,0.4c0.8,0,1.6-0.1,2.3-0.3
		c0.7-0.2,1.3-0.5,1.8-0.9c0.5-0.4,0.9-0.9,1.2-1.4c0.3-0.6,0.4-1.2,0.4-1.9c0-0.8-0.2-1.4-0.6-2c-0.4-0.5-0.9-1-1.5-1.4
		s-1.3-0.8-2.1-1.1c-0.8-0.3-1.6-0.7-2.4-1.1s-1.6-0.8-2.4-1.2c-0.8-0.4-1.5-1-2.1-1.5c-0.6-0.6-1.1-1.3-1.5-2.1
		c-0.4-0.8-0.6-1.8-0.6-2.9c0-1.1,0.2-2.2,0.7-3.1c0.4-0.9,1.1-1.6,1.9-2.3C6,30.4,6.9,30,8,29.7c1.1-0.3,2.3-0.5,3.5-0.5
		c0.6,0,1.3,0.1,2,0.2c0.7,0.1,1.3,0.2,1.9,0.4c0.6,0.2,1.1,0.4,1.5,0.6c0.5,0.2,0.7,0.4,0.9,0.5s0.2,0.2,0.3,0.3
		c0,0.1,0.1,0.2,0.1,0.3c0,0.1,0.1,0.3,0.1,0.4c0,0.2,0,0.4,0,0.7c0,0.3,0,0.5,0,0.7c0,0.2-0.1,0.4-0.1,0.5c0,0.1-0.1,0.2-0.2,0.3
		c-0.1,0.1-0.2,0.1-0.3,0.1c-0.2,0-0.4-0.1-0.8-0.3c-0.4-0.2-0.8-0.4-1.3-0.7c-0.5-0.2-1.1-0.5-1.8-0.7c-0.7-0.2-1.5-0.3-2.4-0.3
		c-0.8,0-1.5,0.1-2.1,0.3c-0.6,0.2-1.1,0.5-1.5,0.8c-0.4,0.3-0.7,0.7-0.9,1.2c-0.2,0.5-0.3,1-0.3,1.5c0,0.8,0.2,1.4,0.6,2
		c0.4,0.5,0.9,1,1.5,1.5c0.6,0.4,1.3,0.8,2.1,1.2c0.8,0.4,1.6,0.7,2.4,1.1c0.8,0.4,1.6,0.8,2.4,1.2c0.8,0.4,1.5,0.9,2.1,1.5
		c0.6,0.6,1.1,1.3,1.5,2.1C19.7,47.3,19.9,48.2,19.9,49.3z"/>
	<path d="M47.8,46.5v10.3c0,0.1,0,0.2-0.1,0.3c-0.1,0.1-0.2,0.2-0.3,0.2c-0.1,0.1-0.3,0.1-0.6,0.1s-0.5,0.1-0.9,0.1
		c-0.4,0-0.7,0-0.9-0.1s-0.4-0.1-0.6-0.1c-0.2-0.1-0.3-0.1-0.3-0.2C44.1,57,44,56.9,44,56.8V46.5l-7.9-15.8
		c-0.2-0.3-0.3-0.6-0.3-0.8c0-0.2,0-0.3,0.1-0.4c0.1-0.1,0.3-0.2,0.6-0.2c0.3,0,0.7,0,1.1,0c0.4,0,0.8,0,1,0c0.3,0,0.5,0.1,0.6,0.1
		c0.2,0.1,0.3,0.1,0.4,0.2c0.1,0.1,0.2,0.2,0.2,0.4l3.9,8c0.4,0.8,0.7,1.6,1.1,2.4c0.4,0.8,0.7,1.7,1.1,2.5h0c0.3-0.8,0.7-1.6,1-2.5
		c0.4-0.8,0.7-1.6,1.1-2.4L52,30c0-0.1,0.1-0.3,0.2-0.4c0.1-0.1,0.2-0.2,0.3-0.2s0.3-0.1,0.6-0.1c0.2,0,0.6,0,0.9,0
		c0.5,0,0.9,0,1.2,0.1c0.3,0,0.5,0.1,0.6,0.2C56,29.6,56,29.8,56,30c0,0.2-0.1,0.4-0.3,0.8L47.8,46.5z"/>
	<path d="M74.9,55.7c0,0.3,0,0.5,0,0.7c0,0.2-0.1,0.4-0.1,0.5c-0.1,0.1-0.1,0.2-0.2,0.3c-0.1,0.1-0.2,0.1-0.3,0.1H61.8
		c-0.3,0-0.6-0.1-0.9-0.3c-0.3-0.2-0.4-0.6-0.4-1.2V30c0-0.1,0-0.2,0.1-0.3c0.1-0.1,0.2-0.2,0.3-0.2c0.1-0.1,0.3-0.1,0.6-0.1
		c0.2,0,0.5-0.1,0.9-0.1c0.4,0,0.7,0,0.9,0.1c0.2,0,0.4,0.1,0.6,0.1s0.2,0.1,0.3,0.2c0.1,0.1,0.1,0.2,0.1,0.3v24.2h10
		c0.1,0,0.2,0,0.3,0.1c0.1,0.1,0.2,0.2,0.2,0.3c0.1,0.1,0.1,0.3,0.1,0.5C74.9,55.2,74.9,55.5,74.9,55.7z"/>
	<path d="M94.6,55.8c0,0.3,0,0.5,0,0.7c0,0.2-0.1,0.4-0.2,0.5c-0.1,0.1-0.2,0.2-0.2,0.3c-0.1,0.1-0.2,0.1-0.3,0.1H80.4
		c-0.3,0-0.6-0.1-0.9-0.3c-0.3-0.2-0.4-0.6-0.4-1.2V30.9c0-0.6,0.1-1,0.4-1.2c0.3-0.2,0.6-0.3,0.9-0.3h13.3c0.1,0,0.2,0,0.3,0.1
		c0.1,0.1,0.2,0.2,0.2,0.3c0.1,0.1,0.1,0.3,0.1,0.5c0,0.2,0.1,0.4,0.1,0.7c0,0.3,0,0.5-0.1,0.7c0,0.2-0.1,0.4-0.1,0.5
		c-0.1,0.1-0.1,0.2-0.2,0.3c-0.1,0.1-0.2,0.1-0.3,0.1H82.7v8.8h9.4c0.1,0,0.2,0,0.3,0.1c0.1,0.1,0.2,0.2,0.2,0.3
		c0.1,0.1,0.1,0.3,0.1,0.5c0,0.2,0,0.4,0,0.7c0,0.3,0,0.5,0,0.7c0,0.2-0.1,0.3-0.1,0.5c-0.1,0.1-0.1,0.2-0.2,0.2
		c-0.1,0.1-0.2,0.1-0.3,0.1h-9.4v10h11.1c0.1,0,0.2,0,0.3,0.1c0.1,0.1,0.2,0.1,0.2,0.3c0.1,0.1,0.1,0.3,0.2,0.5
		C94.6,55.3,94.6,55.5,94.6,55.8z"/>
	<g>
		<path d="M61.5,26.4c0,0.1,0,0.1,0,0.2c0,0.1,0,0.1,0,0.1s0,0.1-0.1,0.1c0,0-0.1,0-0.1,0h-3.8c-0.1,0-0.2,0-0.3-0.1
			c-0.1-0.1-0.1-0.2-0.1-0.3v-6.9c0-0.2,0-0.3,0.1-0.3c0.1-0.1,0.2-0.1,0.3-0.1h3.8c0,0,0.1,0,0.1,0c0,0,0,0,0.1,0.1
			c0,0,0,0.1,0,0.1c0,0.1,0,0.1,0,0.2c0,0.1,0,0.1,0,0.2c0,0.1,0,0.1,0,0.1c0,0,0,0.1-0.1,0.1c0,0-0.1,0-0.1,0h-3.1v2.4h2.7
			c0,0,0.1,0,0.1,0c0,0,0,0,0.1,0.1c0,0,0,0.1,0,0.1c0,0.1,0,0.1,0,0.2c0,0.1,0,0.1,0,0.2c0,0.1,0,0.1,0,0.1c0,0,0,0.1-0.1,0.1
			c0,0-0.1,0-0.1,0h-2.7V26h3.2c0,0,0.1,0,0.1,0c0,0,0.1,0,0.1,0.1c0,0,0,0.1,0,0.1C61.5,26.2,61.5,26.3,61.5,26.4z"/>
		<path d="M71.1,26.4c0.1,0.1,0.1,0.2,0.1,0.2c0,0.1,0,0.1,0,0.1c0,0-0.1,0-0.2,0.1c-0.1,0-0.2,0-0.3,0c-0.1,0-0.2,0-0.3,0
			c-0.1,0-0.1,0-0.2,0c0,0-0.1,0-0.1-0.1c0,0,0-0.1-0.1-0.1l-1.8-3.1l-1.8,3.1c0,0,0,0.1-0.1,0.1c0,0-0.1,0-0.1,0.1c0,0-0.1,0-0.2,0
			c-0.1,0-0.2,0-0.3,0c-0.1,0-0.2,0-0.3,0c-0.1,0-0.1,0-0.2-0.1c0,0,0-0.1,0-0.1c0-0.1,0-0.1,0.1-0.2l2.2-3.6l-2.1-3.4
			c0-0.1-0.1-0.2-0.1-0.2c0-0.1,0-0.1,0-0.1c0,0,0.1,0,0.2-0.1c0.1,0,0.2,0,0.3,0c0.1,0,0.2,0,0.3,0c0.1,0,0.1,0,0.2,0
			c0,0,0.1,0,0.1,0.1c0,0,0,0.1,0.1,0.1l1.7,2.9l1.7-2.9c0,0,0-0.1,0.1-0.1c0,0,0,0,0.1-0.1c0,0,0.1,0,0.2,0c0.1,0,0.2,0,0.3,0
			c0.1,0,0.2,0,0.3,0c0.1,0,0.1,0,0.2,0.1s0,0.1,0,0.1c0,0.1,0,0.1-0.1,0.2L69,22.8L71.1,26.4z"/>
		<path d="M80.4,21.3c0,0.4-0.1,0.7-0.2,1c-0.1,0.3-0.3,0.6-0.6,0.8c-0.2,0.2-0.5,0.4-0.9,0.5c-0.4,0.1-0.8,0.2-1.3,0.2h-0.9v2.8
			c0,0,0,0.1,0,0.1c0,0,0,0-0.1,0.1c0,0-0.1,0-0.2,0c-0.1,0-0.2,0-0.3,0c-0.1,0-0.2,0-0.3,0c-0.1,0-0.1,0-0.2,0c0,0-0.1,0-0.1-0.1
			s0-0.1,0-0.1v-7.2c0-0.2,0-0.3,0.1-0.3c0.1-0.1,0.2-0.1,0.3-0.1h1.7c0.2,0,0.3,0,0.5,0c0.2,0,0.3,0,0.6,0.1c0.2,0,0.4,0.1,0.7,0.3
			c0.2,0.1,0.4,0.3,0.6,0.5c0.2,0.2,0.3,0.4,0.4,0.6C80.3,20.8,80.4,21,80.4,21.3z M79.2,21.4c0-0.3-0.1-0.6-0.2-0.8
			c-0.1-0.2-0.3-0.4-0.4-0.5c-0.2-0.1-0.4-0.2-0.6-0.2c-0.2,0-0.4,0-0.6,0h-1V23h1c0.3,0,0.6,0,0.8-0.1c0.2-0.1,0.4-0.2,0.5-0.3
			c0.1-0.1,0.3-0.3,0.3-0.5C79.2,21.8,79.2,21.6,79.2,21.4z"/>
		<path d="M90.1,26.7C90.1,26.7,90.1,26.7,90.1,26.7c0,0.1-0.1,0.1-0.1,0.1c0,0-0.1,0-0.2,0c-0.1,0-0.2,0-0.3,0c-0.1,0-0.2,0-0.3,0
			c-0.1,0-0.1,0-0.2,0c0,0-0.1,0-0.1-0.1c0,0,0-0.1-0.1-0.1l-0.7-1.8c-0.1-0.2-0.2-0.4-0.3-0.6c-0.1-0.2-0.2-0.3-0.3-0.4
			c-0.1-0.1-0.3-0.2-0.4-0.3c-0.2-0.1-0.4-0.1-0.6-0.1h-0.7v3.3c0,0,0,0.1,0,0.1s0,0-0.1,0.1c0,0-0.1,0-0.2,0c-0.1,0-0.2,0-0.3,0
			s-0.2,0-0.3,0c-0.1,0-0.1,0-0.2,0s-0.1,0-0.1-0.1s0-0.1,0-0.1v-7.2c0-0.2,0-0.3,0.1-0.3c0.1-0.1,0.2-0.1,0.3-0.1h1.7
			c0.2,0,0.4,0,0.5,0c0.1,0,0.3,0,0.4,0c0.3,0.1,0.6,0.1,0.8,0.2c0.2,0.1,0.4,0.3,0.6,0.4c0.2,0.2,0.3,0.4,0.4,0.6
			c0.1,0.2,0.1,0.5,0.1,0.7c0,0.3,0,0.5-0.1,0.7c-0.1,0.2-0.2,0.4-0.3,0.5c-0.1,0.2-0.3,0.3-0.5,0.4c-0.2,0.1-0.4,0.2-0.6,0.3
			c0.1,0.1,0.3,0.1,0.4,0.2c0.1,0.1,0.2,0.2,0.3,0.3c0.1,0.1,0.2,0.3,0.3,0.4c0.1,0.2,0.2,0.3,0.2,0.5l0.7,1.7
			c0.1,0.1,0.1,0.2,0.1,0.3C90.1,26.6,90.1,26.6,90.1,26.7z M88.5,21.2c0-0.3-0.1-0.6-0.2-0.8c-0.1-0.2-0.4-0.4-0.7-0.5
			c-0.1,0-0.2,0-0.3-0.1c-0.1,0-0.3,0-0.5,0h-0.9v2.6h1c0.3,0,0.5,0,0.7-0.1c0.2-0.1,0.4-0.2,0.5-0.3s0.2-0.3,0.3-0.4
			C88.5,21.6,88.5,21.4,88.5,21.2z"/>
		<path d="M98.9,26.4c0,0.1,0,0.1,0,0.2c0,0.1,0,0.1,0,0.1c0,0,0,0.1-0.1,0.1c0,0-0.1,0-0.1,0h-3.8c-0.1,0-0.2,0-0.3-0.1
			c-0.1-0.1-0.1-0.2-0.1-0.3v-6.9c0-0.2,0-0.3,0.1-0.3c0.1-0.1,0.2-0.1,0.3-0.1h3.8c0,0,0.1,0,0.1,0c0,0,0,0,0.1,0.1
			c0,0,0,0.1,0,0.1c0,0.1,0,0.1,0,0.2c0,0.1,0,0.1,0,0.2c0,0.1,0,0.1,0,0.1c0,0,0,0.1-0.1,0.1c0,0-0.1,0-0.1,0h-3.1v2.4h2.7
			c0,0,0.1,0,0.1,0c0,0,0,0,0.1,0.1c0,0,0,0.1,0,0.1c0,0.1,0,0.1,0,0.2c0,0.1,0,0.1,0,0.2c0,0.1,0,0.1,0,0.1s0,0.1-0.1,0.1
			c0,0-0.1,0-0.1,0h-2.7V26h3.2c0,0,0.1,0,0.1,0c0,0,0.1,0,0.1,0.1c0,0,0,0.1,0,0.1C98.9,26.2,98.9,26.3,98.9,26.4z"/>
		<path d="M107.8,24.6c0,0.4-0.1,0.7-0.2,1c-0.1,0.3-0.3,0.5-0.6,0.7c-0.2,0.2-0.5,0.3-0.9,0.4c-0.3,0.1-0.7,0.1-1.1,0.1
			c-0.3,0-0.5,0-0.7-0.1c-0.2,0-0.4-0.1-0.6-0.2c-0.2-0.1-0.3-0.1-0.4-0.2c-0.1-0.1-0.2-0.1-0.3-0.2c0,0-0.1-0.1-0.1-0.2
			c0-0.1,0-0.2,0-0.3c0-0.1,0-0.2,0-0.2c0-0.1,0-0.1,0-0.1c0,0,0-0.1,0.1-0.1c0,0,0.1,0,0.1,0c0.1,0,0.1,0,0.2,0.1
			c0.1,0.1,0.2,0.1,0.4,0.2c0.2,0.1,0.4,0.2,0.6,0.2c0.2,0.1,0.5,0.1,0.8,0.1c0.2,0,0.4,0,0.6-0.1c0.2-0.1,0.4-0.1,0.5-0.3
			c0.1-0.1,0.2-0.2,0.3-0.4s0.1-0.3,0.1-0.5c0-0.2-0.1-0.4-0.2-0.6s-0.2-0.3-0.4-0.4c-0.2-0.1-0.4-0.2-0.6-0.3
			c-0.2-0.1-0.4-0.2-0.7-0.3c-0.2-0.1-0.4-0.2-0.7-0.3c-0.2-0.1-0.4-0.3-0.6-0.4c-0.2-0.2-0.3-0.4-0.4-0.6c-0.1-0.2-0.2-0.5-0.2-0.8
			c0-0.3,0.1-0.6,0.2-0.9c0.1-0.3,0.3-0.5,0.5-0.6c0.2-0.2,0.5-0.3,0.8-0.4c0.3-0.1,0.6-0.1,1-0.1c0.2,0,0.4,0,0.5,0
			c0.2,0,0.3,0.1,0.5,0.1c0.2,0.1,0.3,0.1,0.4,0.2c0.1,0.1,0.2,0.1,0.2,0.1c0,0,0.1,0.1,0.1,0.1c0,0,0,0,0,0.1c0,0,0,0.1,0,0.1
			c0,0,0,0.1,0,0.2c0,0.1,0,0.1,0,0.2c0,0.1,0,0.1,0,0.1c0,0,0,0.1-0.1,0.1c0,0,0,0-0.1,0c0,0-0.1,0-0.2-0.1
			c-0.1-0.1-0.2-0.1-0.4-0.2c-0.1-0.1-0.3-0.1-0.5-0.2c-0.2-0.1-0.4-0.1-0.6-0.1c-0.2,0-0.4,0-0.6,0.1c-0.2,0.1-0.3,0.1-0.4,0.2
			s-0.2,0.2-0.2,0.3c-0.1,0.1-0.1,0.3-0.1,0.4c0,0.2,0.1,0.4,0.2,0.6c0.1,0.2,0.2,0.3,0.4,0.4c0.2,0.1,0.4,0.2,0.6,0.3
			c0.2,0.1,0.4,0.2,0.7,0.3c0.2,0.1,0.4,0.2,0.7,0.3c0.2,0.1,0.4,0.3,0.6,0.4c0.2,0.2,0.3,0.4,0.4,0.6
			C107.7,24.1,107.8,24.3,107.8,24.6z"/>
		<path d="M116.4,24.6c0,0.4-0.1,0.7-0.2,1c-0.1,0.3-0.3,0.5-0.6,0.7c-0.2,0.2-0.5,0.3-0.9,0.4c-0.3,0.1-0.7,0.1-1.1,0.1
			c-0.3,0-0.5,0-0.7-0.1c-0.2,0-0.4-0.1-0.6-0.2c-0.2-0.1-0.3-0.1-0.4-0.2c-0.1-0.1-0.2-0.1-0.3-0.2c0,0-0.1-0.1-0.1-0.2
			c0-0.1,0-0.2,0-0.3c0-0.1,0-0.2,0-0.2c0-0.1,0-0.1,0-0.1c0,0,0-0.1,0.1-0.1c0,0,0.1,0,0.1,0c0.1,0,0.1,0,0.2,0.1
			c0.1,0.1,0.2,0.1,0.4,0.2c0.2,0.1,0.4,0.2,0.6,0.2c0.2,0.1,0.5,0.1,0.8,0.1c0.2,0,0.4,0,0.6-0.1c0.2-0.1,0.4-0.1,0.5-0.3
			c0.1-0.1,0.2-0.2,0.3-0.4s0.1-0.3,0.1-0.5c0-0.2-0.1-0.4-0.2-0.6s-0.2-0.3-0.4-0.4c-0.2-0.1-0.4-0.2-0.6-0.3
			c-0.2-0.1-0.4-0.2-0.7-0.3c-0.2-0.1-0.4-0.2-0.7-0.3c-0.2-0.1-0.4-0.3-0.6-0.4c-0.2-0.2-0.3-0.4-0.4-0.6c-0.1-0.2-0.2-0.5-0.2-0.8
			c0-0.3,0.1-0.6,0.2-0.9c0.1-0.3,0.3-0.5,0.5-0.6c0.2-0.2,0.5-0.3,0.8-0.4c0.3-0.1,0.6-0.1,1-0.1c0.2,0,0.4,0,0.5,0
			c0.2,0,0.3,0.1,0.5,0.1c0.2,0.1,0.3,0.1,0.4,0.2c0.1,0.1,0.2,0.1,0.2,0.1c0,0,0.1,0.1,0.1,0.1c0,0,0,0,0,0.1c0,0,0,0.1,0,0.1
			c0,0,0,0.1,0,0.2c0,0.1,0,0.1,0,0.2c0,0.1,0,0.1,0,0.1c0,0,0,0.1-0.1,0.1c0,0,0,0-0.1,0c0,0-0.1,0-0.2-0.1
			c-0.1-0.1-0.2-0.1-0.4-0.2c-0.1-0.1-0.3-0.1-0.5-0.2c-0.2-0.1-0.4-0.1-0.6-0.1c-0.2,0-0.4,0-0.6,0.1c-0.2,0.1-0.3,0.1-0.4,0.2
			c-0.1,0.1-0.2,0.2-0.2,0.3c-0.1,0.1-0.1,0.3-0.1,0.4c0,0.2,0.1,0.4,0.2,0.6c0.1,0.2,0.2,0.3,0.4,0.4c0.2,0.1,0.4,0.2,0.6,0.3
			c0.2,0.1,0.4,0.2,0.7,0.3c0.2,0.1,0.4,0.2,0.7,0.3c0.2,0.1,0.4,0.3,0.6,0.4c0.2,0.2,0.3,0.4,0.4,0.6
			C116.4,24.1,116.4,24.3,116.4,24.6z"/>
		<path d="M129,23.8v2.9c0,0,0,0.1,0,0.1c0,0,0,0-0.1,0.1s-0.1,0-0.2,0c-0.1,0-0.2,0-0.3,0c-0.1,0-0.2,0-0.3,0c-0.1,0-0.1,0-0.2,0
			c0,0-0.1,0-0.1-0.1c0,0,0-0.1,0-0.1v-2.9l-2.3-4.4c0-0.1-0.1-0.2-0.1-0.2c0-0.1,0-0.1,0-0.1c0,0,0.1,0,0.2-0.1c0.1,0,0.2,0,0.3,0
			c0.1,0,0.2,0,0.3,0c0.1,0,0.1,0,0.2,0s0.1,0,0.1,0.1c0,0,0,0.1,0.1,0.1l1.1,2.2c0.1,0.2,0.2,0.4,0.3,0.7c0.1,0.2,0.2,0.5,0.3,0.7
			h0c0.1-0.2,0.2-0.5,0.3-0.7c0.1-0.2,0.2-0.4,0.3-0.7l1.1-2.2c0,0,0-0.1,0.1-0.1c0,0,0.1,0,0.1-0.1s0.1,0,0.2,0s0.2,0,0.3,0
			c0.1,0,0.3,0,0.3,0c0.1,0,0.1,0,0.2,0.1s0,0.1,0,0.1c0,0.1,0,0.1-0.1,0.2L129,23.8z"/>
		<path d="M142.2,22.8c0,0.6-0.1,1.2-0.2,1.7c-0.2,0.5-0.4,0.9-0.7,1.3c-0.3,0.4-0.7,0.6-1.1,0.8c-0.5,0.2-1,0.3-1.6,0.3
			c-0.6,0-1.1-0.1-1.6-0.3c-0.4-0.2-0.8-0.4-1.1-0.8c-0.3-0.3-0.5-0.7-0.6-1.2c-0.1-0.5-0.2-1.1-0.2-1.7c0-0.6,0.1-1.2,0.2-1.7
			c0.2-0.5,0.4-0.9,0.7-1.3s0.7-0.6,1.1-0.8c0.5-0.2,1-0.3,1.6-0.3c0.6,0,1.1,0.1,1.5,0.3c0.4,0.2,0.8,0.4,1.1,0.8
			c0.3,0.3,0.5,0.7,0.6,1.2C142.1,21.7,142.2,22.2,142.2,22.8z M141,22.9c0-0.4,0-0.8-0.1-1.2c-0.1-0.4-0.2-0.7-0.4-1
			s-0.4-0.5-0.7-0.7c-0.3-0.2-0.7-0.2-1.2-0.2c-0.5,0-0.8,0.1-1.2,0.3c-0.3,0.2-0.6,0.4-0.8,0.7c-0.2,0.3-0.3,0.6-0.4,1
			c-0.1,0.4-0.1,0.8-0.1,1.2c0,0.5,0,0.9,0.1,1.3c0.1,0.4,0.2,0.7,0.4,1c0.2,0.3,0.4,0.5,0.7,0.6c0.3,0.2,0.7,0.2,1.2,0.2
			c0.5,0,0.9-0.1,1.2-0.3c0.3-0.2,0.6-0.4,0.8-0.7c0.2-0.3,0.3-0.6,0.4-1S141,23.3,141,22.9z"/>
		<path d="M152.7,23.9c0,0.5-0.1,0.9-0.2,1.3c-0.1,0.4-0.3,0.7-0.6,0.9c-0.3,0.3-0.6,0.4-1,0.6s-0.8,0.2-1.3,0.2
			c-0.4,0-0.8-0.1-1.2-0.2c-0.4-0.1-0.7-0.3-0.9-0.5c-0.3-0.2-0.5-0.5-0.6-0.9c-0.1-0.4-0.2-0.8-0.2-1.3v-4.8c0,0,0-0.1,0-0.1
			c0,0,0,0,0.1-0.1c0,0,0.1,0,0.2,0s0.2,0,0.3,0c0.1,0,0.2,0,0.3,0c0.1,0,0.1,0,0.2,0s0.1,0,0.1,0.1c0,0,0,0.1,0,0.1v4.7
			c0,0.4,0,0.7,0.1,0.9c0.1,0.3,0.2,0.5,0.4,0.7c0.2,0.2,0.4,0.3,0.6,0.4c0.2,0.1,0.5,0.1,0.8,0.1c0.3,0,0.6,0,0.8-0.1
			s0.4-0.2,0.6-0.4c0.2-0.2,0.3-0.4,0.4-0.7c0.1-0.3,0.1-0.6,0.1-0.9v-4.7c0,0,0-0.1,0-0.1c0,0,0,0,0.1-0.1c0,0,0.1,0,0.2,0
			s0.2,0,0.3,0c0.1,0,0.2,0,0.2,0c0.1,0,0.1,0,0.2,0c0,0,0.1,0,0.1,0.1c0,0,0,0.1,0,0.1V23.9z"/>
		<path d="M162.9,26.7C162.9,26.7,162.9,26.7,162.9,26.7c0,0.1-0.1,0.1-0.1,0.1c0,0-0.1,0-0.2,0c-0.1,0-0.2,0-0.3,0
			c-0.1,0-0.2,0-0.3,0c-0.1,0-0.1,0-0.2,0c0,0-0.1,0-0.1-0.1c0,0,0-0.1-0.1-0.1l-0.7-1.8c-0.1-0.2-0.2-0.4-0.3-0.6
			c-0.1-0.2-0.2-0.3-0.3-0.4c-0.1-0.1-0.3-0.2-0.4-0.3c-0.2-0.1-0.4-0.1-0.6-0.1h-0.7v3.3c0,0,0,0.1,0,0.1c0,0,0,0-0.1,0.1
			c0,0-0.1,0-0.2,0c-0.1,0-0.2,0-0.3,0s-0.2,0-0.3,0c-0.1,0-0.1,0-0.2,0c0,0-0.1,0-0.1-0.1c0,0,0-0.1,0-0.1v-7.2
			c0-0.2,0-0.3,0.1-0.3c0.1-0.1,0.2-0.1,0.3-0.1h1.7c0.2,0,0.4,0,0.5,0c0.1,0,0.3,0,0.4,0c0.3,0.1,0.6,0.1,0.8,0.2
			c0.2,0.1,0.4,0.3,0.6,0.4c0.2,0.2,0.3,0.4,0.4,0.6c0.1,0.2,0.1,0.5,0.1,0.7c0,0.3,0,0.5-0.1,0.7c-0.1,0.2-0.2,0.4-0.3,0.5
			c-0.1,0.2-0.3,0.3-0.5,0.4c-0.2,0.1-0.4,0.2-0.6,0.3c0.1,0.1,0.3,0.1,0.4,0.2c0.1,0.1,0.2,0.2,0.3,0.3c0.1,0.1,0.2,0.3,0.3,0.4
			c0.1,0.2,0.2,0.3,0.2,0.5l0.7,1.7c0.1,0.1,0.1,0.2,0.1,0.3C162.9,26.6,162.9,26.6,162.9,26.7z M161.4,21.2c0-0.3-0.1-0.6-0.2-0.8
			c-0.1-0.2-0.4-0.4-0.7-0.5c-0.1,0-0.2,0-0.3-0.1c-0.1,0-0.3,0-0.5,0h-0.9v2.6h1c0.3,0,0.5,0,0.7-0.1c0.2-0.1,0.4-0.2,0.5-0.3
			c0.1-0.1,0.2-0.3,0.3-0.4S161.4,21.4,161.4,21.2z"/>
		<path d="M171.6,24.6c0,0.4-0.1,0.7-0.2,1c-0.1,0.3-0.3,0.5-0.6,0.7c-0.2,0.2-0.5,0.3-0.9,0.4c-0.3,0.1-0.7,0.1-1.1,0.1
			c-0.3,0-0.5,0-0.7-0.1c-0.2,0-0.4-0.1-0.6-0.2c-0.2-0.1-0.3-0.1-0.4-0.2c-0.1-0.1-0.2-0.1-0.3-0.2c0,0-0.1-0.1-0.1-0.2
			c0-0.1,0-0.2,0-0.3c0-0.1,0-0.2,0-0.2c0-0.1,0-0.1,0-0.1c0,0,0-0.1,0.1-0.1c0,0,0.1,0,0.1,0c0.1,0,0.1,0,0.2,0.1
			c0.1,0.1,0.2,0.1,0.4,0.2c0.2,0.1,0.4,0.2,0.6,0.2c0.2,0.1,0.5,0.1,0.8,0.1c0.2,0,0.4,0,0.6-0.1s0.4-0.1,0.5-0.3
			c0.1-0.1,0.2-0.2,0.3-0.4c0.1-0.2,0.1-0.3,0.1-0.5c0-0.2-0.1-0.4-0.2-0.6s-0.2-0.3-0.4-0.4c-0.2-0.1-0.4-0.2-0.6-0.3
			c-0.2-0.1-0.4-0.2-0.7-0.3c-0.2-0.1-0.4-0.2-0.7-0.3s-0.4-0.3-0.6-0.4c-0.2-0.2-0.3-0.4-0.4-0.6s-0.2-0.5-0.2-0.8
			c0-0.3,0.1-0.6,0.2-0.9c0.1-0.3,0.3-0.5,0.5-0.6s0.5-0.3,0.8-0.4c0.3-0.1,0.6-0.1,1-0.1c0.2,0,0.4,0,0.5,0c0.2,0,0.3,0.1,0.5,0.1
			c0.2,0.1,0.3,0.1,0.4,0.2c0.1,0.1,0.2,0.1,0.2,0.1c0,0,0.1,0.1,0.1,0.1c0,0,0,0,0,0.1c0,0,0,0.1,0,0.1c0,0,0,0.1,0,0.2
			c0,0.1,0,0.1,0,0.2c0,0.1,0,0.1,0,0.1c0,0,0,0.1-0.1,0.1c0,0,0,0-0.1,0c0,0-0.1,0-0.2-0.1c-0.1-0.1-0.2-0.1-0.4-0.2
			s-0.3-0.1-0.5-0.2c-0.2-0.1-0.4-0.1-0.6-0.1c-0.2,0-0.4,0-0.6,0.1c-0.2,0.1-0.3,0.1-0.4,0.2c-0.1,0.1-0.2,0.2-0.2,0.3
			c-0.1,0.1-0.1,0.3-0.1,0.4c0,0.2,0.1,0.4,0.2,0.6c0.1,0.2,0.2,0.3,0.4,0.4c0.2,0.1,0.4,0.2,0.6,0.3c0.2,0.1,0.4,0.2,0.7,0.3
			c0.2,0.1,0.4,0.2,0.7,0.3c0.2,0.1,0.4,0.3,0.6,0.4c0.2,0.2,0.3,0.4,0.4,0.6C171.6,24.1,171.6,24.3,171.6,24.6z"/>
		<path d="M180.4,26.4c0,0.1,0,0.1,0,0.2c0,0.1,0,0.1,0,0.1c0,0,0,0.1-0.1,0.1c0,0-0.1,0-0.1,0h-3.8c-0.1,0-0.2,0-0.3-0.1
			c-0.1-0.1-0.1-0.2-0.1-0.3v-6.9c0-0.2,0-0.3,0.1-0.3c0.1-0.1,0.2-0.1,0.3-0.1h3.8c0,0,0.1,0,0.1,0c0,0,0,0,0.1,0.1
			c0,0,0,0.1,0,0.1c0,0.1,0,0.1,0,0.2c0,0.1,0,0.1,0,0.2c0,0.1,0,0.1,0,0.1c0,0,0,0.1-0.1,0.1c0,0-0.1,0-0.1,0H177v2.4h2.7
			c0,0,0.1,0,0.1,0c0,0,0,0,0.1,0.1c0,0,0,0.1,0,0.1c0,0.1,0,0.1,0,0.2c0,0.1,0,0.1,0,0.2c0,0.1,0,0.1,0,0.1c0,0,0,0.1-0.1,0.1
			c0,0-0.1,0-0.1,0H177V26h3.2c0,0,0.1,0,0.1,0c0,0,0,0,0.1,0.1c0,0,0,0.1,0,0.1C180.4,26.2,180.4,26.3,180.4,26.4z"/>
		<path d="M189.1,26.4c0,0.1,0,0.1,0,0.2c0,0.1,0,0.1,0,0.1c0,0,0,0.1-0.1,0.1c0,0-0.1,0-0.1,0h-3.5c-0.1,0-0.2,0-0.3-0.1
			c-0.1-0.1-0.1-0.2-0.1-0.3v-7.2c0,0,0-0.1,0-0.1c0,0,0,0,0.1-0.1c0,0,0.1,0,0.2,0s0.2,0,0.3,0c0.1,0,0.2,0,0.3,0s0.1,0,0.2,0
			c0,0,0.1,0,0.1,0.1c0,0,0,0.1,0,0.1v6.7h2.9c0,0,0.1,0,0.1,0c0,0,0,0,0.1,0.1c0,0,0,0.1,0,0.1C189.1,26.2,189.1,26.3,189.1,26.4z"
			/>
		<path d="M197.3,19.5c0,0.1,0,0.1,0,0.2c0,0.1,0,0.1,0,0.1c0,0,0,0.1-0.1,0.1c0,0-0.1,0-0.1,0h-2.9v2.6h2.8c0,0,0.1,0,0.1,0
			c0,0,0.1,0,0.1,0.1c0,0,0,0.1,0,0.1c0,0.1,0,0.1,0,0.2c0,0.1,0,0.1,0,0.2c0,0.1,0,0.1,0,0.1c0,0,0,0.1-0.1,0.1c0,0-0.1,0-0.1,0
			h-2.8v3.2c0,0,0,0.1,0,0.1c0,0,0,0-0.1,0.1s-0.1,0-0.2,0c-0.1,0-0.2,0-0.3,0c-0.1,0-0.2,0-0.3,0c-0.1,0-0.1,0-0.2,0
			c0,0-0.1,0-0.1-0.1c0,0,0-0.1,0-0.1v-7.2c0-0.2,0-0.3,0.1-0.3c0.1-0.1,0.2-0.1,0.3-0.1h3.6c0,0,0.1,0,0.1,0c0,0,0,0,0.1,0.1
			c0,0,0,0.1,0,0.1C197.3,19.3,197.3,19.4,197.3,19.5z"/>
	</g>
</g>
</svg>
